<?xml version="1.0" encoding="UTF-8"?><svg id="Layer_1" xmlns="http://www.w3.org/2000/svg" viewBox="0 0 384 384"><defs><style>.cls-1{fill:#fefefe;}.cls-2{fill:#096269;}</style></defs><path class="cls-1" d="M383.93,192.4c0,62.83-.02,125.66,.07,188.5,0,2.52-.44,3.09-3.05,3.09-125.92-.08-251.85-.09-377.77,.01-2.91,0-3.17-.85-3.17-3.35C.08,254.86,.08,129.08,0,3.29,0,.64,.47,0,3.23,0,129.03,.09,254.83,.09,380.63,0c2.98,0,3.37,.85,3.36,3.53-.08,62.96-.06,125.91-.06,188.87Zm-209.88,19.82c0-1.75,0-3.12,0-4.48,0-20.23-.02-40.46,.01-60.69,.01-7.75,3.4-13.5,10.66-16.44,2.26-.92,2.85-1.93,2.84-4.25-.09-23.23-.25-46.45,.09-69.67,.08-5.21-1.33-7.71-6.2-9.9-37.15-16.66-73.95-17.63-110.67,1.2-2.45,1.25-3.27,2.63-3.27,5.4,.1,49.95,.07,99.89,.07,149.84,0,4.36,0,4.32,4.18,3.42,18.7-4.03,37.57-4.79,56.59-2.97,15.31,1.46,30.31,4.48,45.69,8.56Zm142.31-4.67v-3.58c0-50.33-.02-100.65,.06-150.98,0-2.49-.76-3.71-2.94-4.84-38.47-19.94-76.77-17.9-115.01,.67-1.38,.67-2.03,1.4-2.02,3.05,.06,25.35,.05,50.7,.03,76.05,0,1.3,.09,2.23,1.55,2.95,7.03,3.47,9.86,9.37,9.78,17.07-.13,13.24-.04,26.47-.03,39.71,0,1.16,.13,2.32,.21,3.7,7.05-2.71,13.32-2.19,18.85,2.68,1.25,1.1,1.87,.28,2.79-.41,7.22-5.4,14.23-5.41,21.63,.07,1.23,.91,1.79,.97,3.07,.02,10.25-7.57,21.76-4.3,26.78,7.59,.5,1.19,.93,1.87,2.3,1.93,10.99,.46,21.83,2.11,32.95,4.3Zm-133.32-9.93c0,16.86,0,33.73,0,50.59,0,4.94-1.25,6.16-6.19,6.22-1.25,.01-2.51-.11-3.75,.02-3.28,.35-5.31-1.06-6.91-3.93-4.44-7.95-9.09-15.79-13.71-23.64-2.82-4.8-7.27-6.29-11.3-3.89-4.09,2.44-5.04,6.98-2.27,11.75,12.99,22.33,25.86,44.72,38.11,67.47,.86,1.6,1.8,2.35,3.74,2.35,28.36-.06,56.72-.06,85.08,0,1.76,0,2.69-.62,3.43-2.16,2.08-4.32,3.67-8.82,3.68-13.62,.09-27.23,.11-54.46,.07-81.7,0-4.59-3.41-7.96-7.69-8.04-4.2-.09-7.65,3.27-8,7.83-.08,.99-.03,2-.03,3,0,12.49,.02,24.98-.01,37.48,0,3.79-1.53,5.63-4.46,5.62-2.87,0-4.42-1.94-4.52-5.67-.02-.87,0-1.75,0-2.62,0-12.12,.01-24.23,0-36.35,0-5.71-3.18-9.37-7.95-9.29-4.62,.08-7.76,3.71-7.78,9.19-.04,9.87-.01,19.74-.01,29.61,0,3.5,.03,7-.02,10.49-.04,2.8-1.45,4.52-4.31,4.61-2.9,.1-4.27-1.69-4.62-4.37-.13-.98-.05-2-.05-3,0-12.62-.04-25.23,.02-37.85,.02-3.95-1.53-6.81-5.27-8.16-5.4-1.94-10.42,1.91-10.47,8.15-.09,12.74-.03,25.48-.03,38.22,0,1,.05,2.01-.05,3-.26,2.46-1.67,3.85-4.13,4.02-2.51,.17-4.04-1.19-4.61-3.51-.29-1.19-.19-2.48-.19-3.73,0-22.36,0-44.72,0-67.08,0-10.49-.05-20.99,.02-31.48,.02-3.58-1.22-6.38-4.43-8.04-5.46-2.83-11.34,1.24-11.37,7.94-.07,16.86-.02,33.73-.03,50.59Zm-47.72,49.17c-2.84-6.2-7.46-10.94-7.08-17.69,.38-6.85,4-11.54,10.35-15.08-23.73-3.45-46.61-3.08-69.31,2.47-9.73,2.38-10.69,1.66-10.69-8.2,0-44.72-.04-89.45,.08-134.17,0-3.12-.75-3.98-3.89-3.88-7.74,.24-15.5,.26-23.23,0-3.24-.11-3.82,.93-3.81,3.95,.09,56.34,.09,112.68,0,169.02,0,2.95,.75,3.67,3.67,3.66,33.48-.11,66.96-.07,100.45-.07,.98,0,1.96,0,3.47,0Zm220.87-88.09c0-28.23-.04-56.46,.06-84.7,0-2.78-.49-3.87-3.59-3.77-7.74,.25-15.5,.27-23.23,0-3.34-.12-4.06,.82-4.06,4.09,.12,45.35,.08,90.69,.08,136.04,0,6.93-1.7,8.29-8.31,6.72-10.47-2.48-21.11-3.81-31.81-4.75-2.65-.23-3.38,.49-3.33,3.16,.16,9.24,.19,18.49-.01,27.73-.07,2.99,.8,3.7,3.72,3.69,22.24-.12,44.48-.14,66.71,.01,3.14,.02,3.87-.78,3.85-3.88-.13-28.11-.08-56.21-.08-84.32Zm-134.56,191.32c17.35,0,34.71-.06,52.06,.06,2.75,.02,3.68-.69,3.64-3.55-.16-9.98-.14-19.97-.01-29.96,.03-2.49-.76-3.13-3.2-3.12-34.96,.08-69.91,.09-104.87-.02-3.02,0-3.43,1.09-3.4,3.69,.13,9.74,.16,19.48-.01,29.21-.05,2.94,.74,3.79,3.74,3.77,17.35-.14,34.71-.07,52.06-.07Zm-64.49-132.91c5.65,9.72,10.97,18.87,16.29,28.03,.72-7.57,.72-14.98,.71-22.39,0-.83-.31-1.36-1.21-1.59-5.13-1.29-10.25-2.62-15.78-4.05Z"/><path class="cls-2" d="M174.05,212.21c-15.38-4.08-30.39-7.1-45.69-8.56-19.02-1.82-37.89-1.05-56.59,2.97-4.18,.9-4.18,.94-4.18-3.42,0-49.95,.03-99.89-.07-149.84,0-2.76,.82-4.14,3.27-5.4,36.71-18.83,73.52-17.86,110.67-1.2,4.88,2.19,6.28,4.69,6.2,9.9-.33,23.22-.18,46.45-.09,69.67,0,2.32-.59,3.34-2.84,4.25-7.26,2.95-10.65,8.7-10.66,16.44-.03,20.23,0,40.46-.01,60.69,0,1.36,0,2.73,0,4.48ZM125.78,53.29c-11.26,.04-21.97,2.57-32.19,7.24-3.33,1.52-4.53,3.91-3.16,6.44,1.55,2.87,3.99,3.07,6.72,1.82,18.9-8.65,37.82-8.63,56.76-.16,2.85,1.28,5.42,1.3,7.04-1.76,1.32-2.48,.02-4.94-3.32-6.43-10.13-4.52-20.71-7.06-31.85-7.14Zm35.58,68.67c.01-2.34-1.39-3.54-3.37-4.42-21.58-9.67-43.13-9.74-64.68,.12-2.68,1.23-4.02,3.15-2.9,5.94,1.2,2.99,3.67,3.44,6.51,2.27,.8-.33,1.58-.74,2.38-1.07,11.39-4.68,23.12-6.73,35.43-4.86,6.82,1.04,13.28,3.12,19.6,5.84,3.8,1.64,7.02-.24,7.03-3.82Zm0,56.92c.02-2.57-1.72-3.67-3.75-4.56-11.46-5.05-23.41-7.68-35.96-6.95-9.92,.57-19.37,3.1-28.39,7.3-2.67,1.24-3.97,3.19-2.81,5.97,1.25,2.99,3.73,3.36,6.54,2.19,.8-.33,1.57-.75,2.38-1.08,13-5.4,26.37-7.09,40.21-3.97,5.11,1.15,10,2.94,14.82,5,3.78,1.62,7.01-.31,6.97-3.9Zm-36.3-97.1c-10.55,.07-21.23,2.62-31.46,7.25-2.78,1.26-4.27,3.08-3.18,6.15,.95,2.67,3.62,3.47,6.89,1.99,18.93-8.54,37.82-8.49,56.75-.02,3.26,1.46,5.95,.61,7.02-1.9,1.1-2.57-.09-4.88-3.48-6.39-10.13-4.5-20.72-7.02-32.55-7.09Zm36.3,68.53c-.05-1.96-.78-3.04-3.19-4.14-21.59-9.85-43.19-9.86-64.81-.05-2.65,1.2-4.07,3.13-2.96,5.95,1.19,3.01,3.66,3.46,6.51,2.31,.81-.33,1.58-.74,2.39-1.07,13.03-5.43,26.43-7.13,40.3-4,5.12,1.16,10.02,2.96,14.85,5.02,3.78,1.61,7.01-.4,6.91-4Z"/><path class="cls-2" d="M316.36,207.55c-11.12-2.2-21.97-3.85-32.95-4.3-1.36-.06-1.8-.74-2.3-1.93-5.02-11.89-16.53-15.16-26.78-7.59-1.28,.95-1.84,.89-3.07-.02-7.39-5.48-14.41-5.47-21.63-.07-.92,.69-1.53,1.52-2.79,.41-5.53-4.87-11.8-5.39-18.85-2.68-.08-1.37-.2-2.53-.21-3.7-.01-13.24-.1-26.47,.03-39.71,.08-7.7-2.75-13.6-9.78-17.07-1.46-.72-1.55-1.66-1.55-2.95,.01-25.35,.03-50.7-.03-76.05,0-1.66,.64-2.38,2.02-3.05,38.23-18.57,76.53-20.61,115.01-.67,2.18,1.13,2.95,2.35,2.94,4.84-.09,50.32-.06,100.65-.06,150.98v3.58Zm-60.28-154.26c-11,.08-21.45,2.61-31.49,7.04-2.76,1.22-4.84,2.84-3.64,6.25,.99,2.82,3.65,3.6,7.17,2.02,18.83-8.44,37.63-8.43,56.44,.01,2.83,1.27,5.43,1.35,7.04-1.75,1.33-2.56-.09-5.08-3.62-6.61-10.17-4.42-20.75-6.98-31.9-6.97Zm31.12,44.72c2.47-.25,4.16-1.17,4.71-3.41,.69-2.81-.78-4.43-3.21-5.53-11.66-5.29-23.85-7.92-36.66-7.16-9.79,.58-19.12,3.14-28.04,7.22-2.18,1-3.51,2.48-3.24,4.88,.23,2.01,1.46,3.38,3.54,3.87,1.59,.37,2.91-.38,4.27-.98,18.45-8.13,36.91-8.18,55.39-.07,1.13,.5,2.32,.85,3.24,1.18Zm-30.79,69.23c-11.15,.03-21.75,2.56-31.89,7.13-3.51,1.58-4.59,3.66-3.4,6.35,1.16,2.62,3.57,3.37,6.95,1.86,18.85-8.46,37.68-8.46,56.52,.01,2.84,1.28,5.43,1.3,7.04-1.81,1.28-2.48-.04-4.95-3.31-6.42-10.15-4.55-20.76-7.04-31.91-7.12Zm3.09-28.47c-13.65-.01-25.24,2.57-34.99,7.09-3.47,1.61-4.57,3.69-3.39,6.37,1.16,2.62,3.57,3.37,6.95,1.86,18.85-8.46,37.66-8.44,56.51-.02,3.34,1.49,5.99,.72,7.05-1.75,1.1-2.57-.11-4.98-3.34-6.44-10.14-4.57-20.75-7.05-28.8-7.11Zm-3.23-28.51c-11.15,.07-21.74,2.59-31.86,7.21-3.37,1.54-4.55,3.83-3.21,6.4,1.52,2.93,3.94,3.11,6.68,1.86,18.94-8.62,37.87-8.6,56.84-.08,3.28,1.47,6.11,.63,6.95-1.95,1.06-3.25-.54-5.15-3.46-6.42-10.19-4.42-20.78-6.98-31.93-7.02Z"/><path d="M183.04,197.61c0-16.86-.04-33.73,.02-50.59,.03-6.7,5.91-10.76,11.37-7.94,3.2,1.66,4.45,4.46,4.43,8.04-.07,10.49-.02,20.99-.02,31.48,0,22.36,0,44.72,0,67.08,0,1.25-.1,2.54,.19,3.73,.57,2.32,2.1,3.68,4.61,3.51,2.47-.17,3.88-1.56,4.13-4.02,.1-.99,.05-2,.05-3,0-12.74-.06-25.48,.03-38.22,.04-6.24,5.06-10.09,10.47-8.15,3.75,1.35,5.29,4.21,5.27,8.16-.06,12.62-.02,25.23-.02,37.85,0,1-.08,2.01,.05,3,.34,2.68,1.71,4.47,4.62,4.37,2.86-.1,4.27-1.81,4.31-4.61,.05-3.5,.02-7,.02-10.49,0-9.87-.03-19.74,.01-29.61,.02-5.48,3.15-9.11,7.78-9.19,4.77-.08,7.94,3.58,7.95,9.29,.02,12.12,0,24.23,0,36.35,0,.87-.02,1.75,0,2.62,.1,3.73,1.65,5.66,4.52,5.67,2.93,0,4.45-1.83,4.46-5.62,.03-12.49,.01-24.98,.01-37.48,0-1-.05-2,.03-3,.35-4.56,3.79-7.91,8-7.83,4.28,.09,7.69,3.45,7.69,8.04,.04,27.23,.03,54.46-.07,81.7-.02,4.81-1.6,9.3-3.68,13.62-.74,1.54-1.67,2.16-3.43,2.16-28.36-.05-56.72-.06-85.08,0-1.93,0-2.87-.75-3.74-2.35-12.25-22.75-25.12-45.14-38.11-67.47-2.77-4.77-1.82-9.31,2.27-11.75,4.03-2.4,8.48-.91,11.3,3.89,4.62,7.85,9.26,15.69,13.71,23.64,1.6,2.87,3.63,4.27,6.91,3.93,1.24-.13,2.5,0,3.75-.02,4.94-.06,6.19-1.28,6.19-6.22,.01-16.86,0-33.73,0-50.59Z"/><path class="cls-2" d="M135.32,246.78c-1.51,0-2.49,0-3.47,0-33.48,0-66.97-.04-100.45,.07-2.92,0-3.68-.72-3.67-3.66,.09-56.34,.09-112.68,0-169.02,0-3.02,.57-4.06,3.81-3.95,7.74,.26,15.49,.25,23.23,0,3.13-.1,3.89,.76,3.89,3.88-.11,44.72-.08,89.45-.08,134.17,0,9.86,.96,10.58,10.69,8.2,22.7-5.55,45.58-5.92,69.31-2.47-6.35,3.54-9.97,8.23-10.35,15.08-.37,6.74,4.25,11.49,7.08,17.69Z"/><path class="cls-2" d="M356.19,158.69c0,28.11-.05,56.22,.08,84.32,.01,3.1-.71,3.9-3.85,3.88-22.24-.15-44.48-.14-66.71-.01-2.92,.02-3.79-.7-3.72-3.69,.2-9.24,.18-18.49,.01-27.73-.05-2.67,.69-3.39,3.33-3.16,10.7,.94,21.34,2.27,31.81,4.75,6.61,1.57,8.31,.21,8.31-6.72,0-45.35,.04-90.69-.08-136.04,0-3.26,.72-4.21,4.06-4.09,7.74,.28,15.49,.26,23.23,0,3.11-.1,3.6,.99,3.59,3.77-.1,28.23-.06,56.46-.06,84.7Z"/><path d="M221.63,350.02c-17.35,0-34.71-.07-52.06,.07-3,.02-3.79-.83-3.74-3.77,.18-9.73,.15-19.47,.01-29.21-.04-2.6,.38-3.7,3.4-3.69,34.96,.11,69.91,.1,104.87,.02,2.44,0,3.23,.64,3.2,3.12-.12,9.99-.15,19.97,.01,29.96,.05,2.86-.88,3.57-3.64,3.55-17.35-.12-34.71-.06-52.06-.06Zm-34.55-13.89c2.62,0,5.24,0,7.86,0,2.77-.01,4.59-1.23,4.76-4.13,.17-2.89-1.52-4.62-4.21-4.72-5.48-.21-10.98-.19-16.45,.03-2.69,.11-4.42,1.85-4.24,4.7,.18,2.86,2.05,4.1,4.8,4.13,2.49,.02,4.99,0,7.48,0Z"/><path class="cls-2" d="M157.14,217.1c5.53,1.42,10.65,2.76,15.78,4.05,.9,.23,1.21,.76,1.21,1.59,0,7.41,0,14.82-.71,22.39-5.32-9.16-10.64-18.31-16.29-28.03Z"/><path class="cls-1" d="M125.78,53.29c11.13,.08,21.72,2.62,31.85,7.14,3.35,1.49,4.64,3.95,3.32,6.43-1.63,3.07-4.19,3.04-7.04,1.76-18.94-8.47-37.86-8.5-56.76,.16-2.73,1.25-5.17,1.05-6.72-1.82-1.37-2.53-.17-4.92,3.16-6.44,10.22-4.67,20.93-7.2,32.19-7.23Z"/><path class="cls-1" d="M161.35,121.96c-.01,3.58-3.23,5.46-7.03,3.82-6.31-2.72-12.78-4.81-19.6-5.84-12.31-1.87-24.04,.18-35.43,4.86-.8,.33-1.58,.74-2.38,1.07-2.84,1.17-5.31,.72-6.51-2.27-1.12-2.79,.22-4.71,2.9-5.94,21.55-9.86,43.1-9.79,64.68-.12,1.98,.89,3.38,2.08,3.37,4.42Z"/><path class="cls-1" d="M161.35,178.88c.04,3.58-3.18,5.52-6.97,3.9-4.82-2.06-9.71-3.85-14.82-5-13.84-3.12-27.21-1.43-40.21,3.97-.8,.33-1.57,.75-2.38,1.08-2.82,1.17-5.3,.8-6.54-2.19-1.16-2.78,.15-4.73,2.81-5.97,9.02-4.2,18.47-6.73,28.39-7.3,12.55-.72,24.5,1.91,35.96,6.95,2.03,.9,3.78,1.99,3.75,4.56Z"/><path class="cls-1" d="M125.04,81.78c11.83,.07,22.42,2.59,32.55,7.09,3.38,1.5,4.58,3.82,3.48,6.39-1.08,2.51-3.77,3.36-7.02,1.9-18.93-8.48-37.83-8.52-56.75,.02-3.27,1.48-5.94,.68-6.89-1.99-1.09-3.07,.4-4.89,3.18-6.15,10.23-4.63,20.91-7.18,31.46-7.25Z"/><path class="cls-1" d="M161.35,150.31c.1,3.6-3.13,5.61-6.91,4-4.83-2.05-9.73-3.86-14.85-5.02-13.87-3.13-27.27-1.43-40.3,4-.81,.34-1.58,.75-2.39,1.07-2.85,1.16-5.32,.7-6.51-2.31-1.11-2.82,.3-4.74,2.96-5.95,21.62-9.81,43.22-9.8,64.81,.05,2.41,1.1,3.14,2.18,3.19,4.14Z"/><path class="cls-1" d="M256.09,53.3c11.14,0,21.73,2.55,31.89,6.97,3.53,1.53,4.95,4.05,3.62,6.61-1.61,3.1-4.21,3.02-7.04,1.75-18.81-8.45-37.61-8.45-56.44-.01-3.52,1.58-6.18,.8-7.17-2.02-1.2-3.41,.88-5.03,3.64-6.25,10.03-4.44,20.48-6.97,31.49-7.04Z"/><path class="cls-1" d="M287.2,98.01c-.91-.33-2.11-.68-3.24-1.18-18.48-8.12-36.94-8.07-55.39,.07-1.36,.6-2.67,1.35-4.27,.98-2.08-.48-3.32-1.86-3.54-3.87-.27-2.39,1.06-3.88,3.24-4.88,8.92-4.08,18.25-6.64,28.04-7.22,12.81-.76,25,1.87,36.66,7.16,2.43,1.1,3.9,2.72,3.21,5.53-.55,2.24-2.24,3.17-4.71,3.41Z"/><path class="cls-1" d="M256.42,167.24c11.15,.08,21.76,2.57,31.9,7.12,3.27,1.47,4.59,3.94,3.31,6.42-1.61,3.11-4.2,3.09-7.04,1.81-18.84-8.47-37.66-8.47-56.52-.01-3.38,1.52-5.79,.77-6.95-1.86-1.19-2.69-.11-4.76,3.4-6.35,10.14-4.57,20.73-7.1,31.89-7.13Z"/><path class="cls-1" d="M259.51,138.78c8.05,.06,18.66,2.54,28.8,7.11,3.24,1.46,4.44,3.87,3.34,6.44-1.06,2.47-3.71,3.24-7.05,1.75-18.85-8.42-37.67-8.44-56.51,.02-3.38,1.52-5.79,.77-6.95-1.86-1.18-2.68-.08-4.76,3.39-6.37,9.74-4.53,21.33-7.1,34.99-7.09Z"/><path class="cls-1" d="M256.28,110.27c11.15,.04,21.74,2.6,31.93,7.01,2.92,1.27,4.52,3.17,3.46,6.42-.84,2.58-3.67,3.43-6.95,1.95-18.97-8.53-37.9-8.54-56.84,.08-2.74,1.25-5.16,1.07-6.68-1.86-1.33-2.57-.16-4.86,3.21-6.4,10.12-4.61,20.71-7.13,31.86-7.2Z"/><path class="cls-1" d="M187.08,336.13c-2.49,0-4.99,.02-7.48,0-2.75-.03-4.63-1.27-4.8-4.13-.18-2.85,1.55-4.59,4.24-4.7,5.48-.22,10.98-.24,16.45-.03,2.68,.1,4.38,1.84,4.21,4.72-.17,2.91-1.99,4.12-4.76,4.13-2.62,.01-5.24,0-7.86,0Z"/></svg>